<svg xmlns="http://www.w3.org/2000/svg" width="24" height="24" viewBox="0 0 24 24">
  <path fill="#333" fill-rule="evenodd" d="M3,11.9986604 C3,11.6359816 3.01576864,11.2890714 3,11.0367731 C4.07226785,11.1786909 8.90015187,11.4152206 11.2812172,11.5098324 L11.2969859,11.3836833 C9.59397224,10.7371688 6.99214584,9.45990859 5.82526612,8.30879752 C6.12487038,7.96188733 6.56639243,7.3153729 6.75561617,7 C8.14325691,8.63993906 11.4862096,10.6740942 12.9999995,11.2259968 C12.9842309,11.4152206 12.9842309,11.7148248 12.9842309,11.9986604 C12.9842309,12.282496 12.9842309,12.5821003 12.9999995,12.771324 C11.4862096,13.3232266 8.14325691,15.3573818 6.75561617,16.9973208 C6.56639243,16.6819479 6.12487038,16.0354335 5.82526612,15.6885233 C6.99214584,14.5374122 9.59397224,13.260152 11.2969859,12.6136376 L11.2812172,12.4874884 C8.90015187,12.5821003 4.07226785,12.8186299 3,12.9605477 C3.01576864,12.7082494 3,12.3613392 3,11.9986604 Z"/>
</svg>
