<svg width="24" height="24" viewBox="0 0 24 24" xmlns="http://www.w3.org/2000/svg">
  <g stroke="none" stroke-width="1" fill="none" fill-rule="evenodd">
    <path d="M21.6225,15.8775 L18.75,13.0275 L19.2525,12.525 C19.5432927,12.2324719 19.5432927,11.7600281 19.2525,11.4675 L14.7525,6.9675 C14.4599719,6.6767073 13.9875281,6.6767073 13.695,6.9675 L13.1025,7.56 L8.0325,2.4675 C7.73997191,2.1767073 7.26752809,2.1767073 6.975,2.4675 L3.975,5.4675 L3.885,5.58 L0.885,10.08 C0.686473992,10.3763261 0.724107294,10.7714757 0.975,11.025 L3.225,13.275 C3.36582495,13.4169845 3.55752185,13.4968487 3.7575,13.4968487 C3.95747815,13.4968487 4.14917505,13.4169845 4.29,13.275 L7.5,10.0575 L9.0675,11.625 L5.4675,15.2175 C5.1767073,15.5100281 5.1767073,15.9824719 5.4675,16.275 L6.9675,17.775 C7.10780358,17.9181417 7.29956558,17.9991679 7.5,18 C7.63786929,17.9990597 7.77281158,17.960134 7.89,17.8875 L11.1375,15.9375 L12.9675,17.775 C13.2600281,18.0657927 13.7324719,18.0657927 14.025,17.775 L14.5275,17.25 L17.37,20.1225 C18.5422244,21.2947244 20.4427756,21.2947244 21.615,20.1225 C22.7872244,18.9502756 22.7872244,17.0497244 21.615,15.8775 L21.6225,15.8775 Z M7.5,7.935 L3.75,11.685 L2.4675,10.4025 L5.085,6.4725 L7.5,4.0575 L12.0675,8.625 L10.125,10.56 L7.5,7.935 Z M13.5,16.185 L11.37,14.055 L7.62,16.305 L7.065,15.75 L14.25,8.5575 L17.6925,12 L13.5,16.185 Z M20.565,19.0575 C20.2836476,19.3391656 19.9018639,19.49743 19.50375,19.49743 C19.1056361,19.49743 18.7238524,19.3391656 18.4425,19.0575 L15.5925,16.215 L17.715,14.0925 L20.565,16.935 C20.8466656,17.2163524 21.00493,17.5981361 21.00493,17.99625 C21.00493,18.3943639 20.8466656,18.7761476 20.565,19.0575 L20.565,19.0575 Z" fill="currentColor"></path>
  </g>
</svg>