<svg xmlns="http://www.w3.org/2000/svg" width="24" height="24" viewBox="0 0 24 24">
  <g fill="none" fill-rule="evenodd" stroke="#0E4EAD" stroke-width="1.5" transform="translate(0 4.5)">
    <path d="M8 7.75L16 7.75M7.75 14.75L5.7505 14.75C4.6455 14.75 3.75 13.8545 3.75 12.7495L3.75 2.7505C3.75 1.6455 4.6455.75 5.7505.75L7.75.75 7.75 14.75zM18.2495 14.75L16.25 14.75 16.25.75 18.2495.75C19.3545.75 20.25 1.6455 20.25 2.7505L20.25 12.7495C20.25 13.8545 19.3545 14.75 18.2495 14.75zM21.249 11.75L20.25 11.75 20.25 3.75 21.249 3.75C22.354 3.75 23.25 4.646 23.25 5.751L23.25 9.749C23.25 10.854 22.354 11.75 21.249 11.75zM3.75 11.75L2.751 11.75C1.646 11.75.75 10.854.75 9.749L.75 5.751C.75 4.646 1.646 3.75 2.751 3.75L3.75 3.75 3.75 11.75z"/>
  </g>
</svg>
