<svg xmlns="http://www.w3.org/2000/svg" width="24" height="24" viewBox="0 0 24 24">
  <g fill="none" fill-rule="evenodd">
    <path stroke="#0e4ead" stroke-width="1.5" d="M8.75 3.25C8.75 1.86891356 7.63108644.75 6.25.75 4.86891356.75 3.75 1.86891356 3.75 3.25 3.75 4.63108644 4.86891356 5.75 6.25 5.75 7.63108644 5.75 8.75 4.63108644 8.75 3.25zM8.75 20.75C8.75 19.3689136 7.63108644 18.25 6.25 18.25 4.86891356 18.25 3.75 19.3689136 3.75 20.75 3.75 22.1310864 4.86891356 23.25 6.25 23.25 7.63108644 23.25 8.75 22.1310864 8.75 20.75zM19.75 3.5C19.75 4.881 18.631 6 17.25 6 15.869 6 14.75 4.881 14.75 3.5 14.75 2.119 15.869 1 17.25 1 18.631 1 19.75 2.119 19.75 3.5z"/>
    <g stroke="#0e4ead" stroke-width="1.5" transform="translate(5 5)">
      <path d="M1.25.5L1.25 10M12.25.5L12.25 2C12.25 4.209 10.459 6 8.25 6L5.25 6C3.041 6 1.25 7.791 1.25 10L1.25 13.5"/>
    </g>
  </g>
</svg>
