<svg xmlns="http://www.w3.org/2000/svg" width="24" height="24" viewBox="0 0 24 24">
  <g fill="none" fill-rule="evenodd">
    <path stroke="currentColor" stroke-width="1.5" d="M9.5 0L9.5 4M4 9.5L0 9.5M16.65675 2.343L13.82825 5.1715M5.1714 13.82835L2.3429 16.65685M5.1714 5.1716L2.3434 2.3431"/>
    <path fill="currentColor" fill-rule="nonzero" d="M13.8388348,6.33883476 L13.8388348,23.3388348 L15.8388348,23.3388348 L15.8388348,6.33883476 L13.8388348,6.33883476 Z M12.3388348,4.83883476 L17.3388348,4.83883476 L17.3388348,24.8388348 L12.3388348,24.8388348 L12.3388348,4.83883476 Z" transform="rotate(-45 14.839 14.839)"/>
    <path fill="currentColor" fill-rule="nonzero" d="M8.8890873,8.3890873 L8.8890873,11.3890873 L10.8890873,11.3890873 L10.8890873,8.3890873 L8.8890873,8.3890873 Z M7.3890873,6.8890873 L12.3890873,6.8890873 L12.3890873,12.8890873 L7.3890873,12.8890873 L7.3890873,6.8890873 Z" transform="rotate(-45 9.89 9.89)"/>
  </g>
</svg>
