<svg xmlns="http://www.w3.org/2000/svg" width="56" height="56" viewBox="0 0 56 56">
  <g fill="none" fill-rule="evenodd">
    <rect width="56" height="56" fill="#333"/>
    <g stroke="#E0DBD5" stroke-width="2" transform="translate(4 4)">
      <polygon points="24 37 5 28 24 12 43 28"/>
      <path d="M24,12 L24,36"/>
      <path fill="#333" d="M28 12C28 14.2096 26.2096 16 24 16 21.7904 16 20 14.2096 20 12 20 9.7904 21.7904 8 24 8 26.2096 8 28 9.7904 28 12zM9 28C9 30.2096 7.2096 32 5 32 2.7904 32 1 30.2096 1 28 1 25.7904 2.7904 24 5 24 7.2096 24 9 25.7904 9 28zM47 28C47 30.2096 45.2096 32 43 32 40.7904 32 39 30.2096 39 28 39 25.7904 40.7904 24 43 24 45.2096 24 47 25.7904 47 28zM28 37C28 39.2096 26.2096 41 24 41 21.7904 41 20 39.2096 20 37 20 34.7904 21.7904 33 24 33 26.2096 33 28 34.7904 28 37z"/>
    </g>
  </g>
</svg>
