<svg xmlns="http://www.w3.org/2000/svg" width="56" height="56" viewBox="0 0 56 56">
  <g fill="none" fill-rule="evenodd">
    <rect width="56" height="56" fill="#333"/>
    <g stroke="#E0DBD5" stroke-width="2" transform="translate(4 4)">
      <path d="M14 18C14 20.2096 12.2096 22 10 22 7.7904 22 6 20.2096 6 18 6 15.7904 7.7904 14 10 14 12.2096 14 14 15.7904 14 18zM27 34C27 36.2096 25.2096 38 23 38 20.7904 38 19 36.2096 19 34 19 31.7904 20.7904 30 23 30 25.2096 30 27 31.7904 27 34zM42 14C42 16.2096 40.2096 18 38 18 35.7904 18 34 16.2096 34 14 34 11.7904 35.7904 10 38 10 40.2096 10 42 11.7904 42 14z"/>
    </g>
  </g>
</svg>
