<svg xmlns="http://www.w3.org/2000/svg" width="56" height="56" viewBox="0 0 56 56">
  <g fill="none" fill-rule="evenodd">
    <rect width="56" height="56" fill="#333"/>
    <g stroke="#E0DBD5" transform="translate(13 6)">
      <path stroke-width="2" d="M4,9 L4,28"/>
      <g stroke-width="2">
        <path d="M8 4C8 6.2096 6.2096 8 4 8 1.7904 8 0 6.2096 0 4 0 1.7904 1.7904 0 4 0 6.2096 0 8 1.7904 8 4zM30 4C30 6.2096 28.2096 8 26 8 23.7904 8 22 6.2096 22 4 22 1.7904 23.7904 0 26 0 28.2096 0 30 1.7904 30 4zM8 40C8 42.2096 6.2096 44 4 44 1.7904 44 0 42.2096 0 40 0 37.7904 1.7904 36 4 36 6.2096 36 8 37.7904 8 40zM26 9L26 12C26 16.418 22.418 20 18 20L12 20C7.582 20 4 23.582 4 28L4 35"/>
      </g>
    </g>
  </g>
</svg>
