<svg xmlns="http://www.w3.org/2000/svg" width="56" height="56" viewBox="0 0 56 56">
  <g fill="none" fill-rule="evenodd">
    <rect width="56" height="56" fill="#333"/>
    <g stroke="#E0DBD5" stroke-width="2" transform="translate(4 4)">
      <polyline points="10 34 24 12 38 34"/>
      <path fill="#333" d="M28 12C28 14.2096 26.2096 16 24 16 21.7904 16 20 14.2096 20 12 20 9.7904 21.7904 8 24 8 26.2096 8 28 9.7904 28 12zM14 34C14 36.2096 12.2096 38 10 38 7.7904 38 6 36.2096 6 34 6 31.7904 7.7904 30 10 30 12.2096 30 14 31.7904 14 34zM42 34C42 36.2096 40.2096 38 38 38 35.7904 38 34 36.2096 34 34 34 31.7904 35.7904 30 38 30 40.2096 30 42 31.7904 42 34z"/>
    </g>
  </g>
</svg>
