<svg xmlns="http://www.w3.org/2000/svg" width="24" height="24" viewBox="0 0 24 24">
  <g fill="none" fill-rule="evenodd">
    <path fill="#0e4ead" fill-rule="nonzero" d="M17,6.5 L17,1.5 L3,1.5 L3,6.5 L17,6.5 Z M18.5,8 L1.5,8 L1.5,0 L18.5,0 L18.5,8 Z"/>
    <path fill="#0e4ead" fill-rule="nonzero" d="M17.5,4.5 L17.5,3 L19.5,3 C21.0422479,3 22.5,4.24309266 22.5,5.75 L22.5,8.25 C22.5,9.47419447 21.4510297,10.6385637 20.1942495,10.9809994 L12.171014,12.8215249 C11.6271066,12.9700053 11.25,13.4637662 11.25,14.0275 L11.25,15.5 L9.75,15.5 L9.75,14.0275 C9.75,12.7874207 10.5797131,11.7010439 11.8057505,11.3670006 L19.828986,9.52647513 C20.4457845,9.35809624 21,8.7429106 21,8.25 L21,5.75 C21,5.1292282 20.2621156,4.5 19.5,4.5 L17.5,4.5 Z"/>
    <path fill="#0e4ead" fill-rule="nonzero" d="M12,16 L9,16 L9,21.625 C9,22.0211391 9.60487692,22.5 10.5,22.5 C11.3951231,22.5 12,22.0211391 12,21.625 L12,16 Z M10.5,24 C8.84325,24 7.5,22.9365938 7.5,21.625 L7.5,14.5 L13.5,14.5 L13.5,21.625 C13.5,22.9365938 12.15675,24 10.5,24 Z"/>
  </g>
</svg>
