<svg xmlns="http://www.w3.org/2000/svg" width="24" height="24" viewBox="0 0 24 24">
  <g fill="none" fill-rule="evenodd">
    <path stroke="currentColor" stroke-width="1.5" d="M17.1882615 13.4674427C17.8875909 14.3626613 18.25 15.3821783 18.25 16.5100002L18.25 18.75 23.25 18.75 23.25 16.5106383C23.25 16.0154506 22.9215271 15.5344725 22.1646446 15.0479051 21.2821056 14.4805586 20.3212209 14.0710012 19.2786191 13.8182493 18.539388 13.6390417 17.8425338 13.522325 17.1882615 13.4674427zM16.3404255 9.78617021C17.024755 9.78617021 17.6005299 9.54306529 18.1079678 9.03562736 18.6154057 8.52818943 18.8585106 7.95241461 18.8585106 7.26808511 18.8585106 6.5837556 18.6154057 6.00798078 18.1079678 5.50054285 17.6005299 4.99310492 17.024755 4.75 16.3404255 4.75 15.656096 4.75 15.0803212 4.99310492 14.5728833 5.50054285 14.0654453 6.00798078 13.8223404 6.5837556 13.8223404 7.26808511 13.8223404 7.95241461 14.0654453 8.52818943 14.5728833 9.03562736 15.0803212 9.54306529 15.656096 9.78617021 16.3404255 9.78617021zM.75 18.75L14.25 18.75 14.25 16.5106383C14.25 16.0079995 13.9324896 15.52616 13.204559 15.0411808 12.3574708 14.4768137 11.4257498 14.0692484 10.405606 13.8175208 9.35814837 13.5590534 8.39776977 13.4308511 7.52508361 13.4308511 6.65239745 13.4308511 5.69201885 13.5590534 4.64456125 13.8175208 3.622664 14.0696811 2.68074224 14.4783312 1.81533924 15.0446046 1.07296628 15.5303738.75 16.0117408.75 16.5106383L.75 18.75zM10.1310208 6.66666667C10.1310208 5.066875 9.0891875 3.75 7.50602083 3.75 5.92285417 3.75 4.88102083 5.066875 4.88102083 6.66666667 4.88102083 7.42908333 5.00177083 9.875 3.13102083 9.875L3.13102083 10.1666667C3.82139583 10.397375 5.90972917 10.75 7.50602083 10.75 9.1136875 10.75 11.1929792 10.39825 11.8810208 10.1666667L11.8810208 9.875C10.0706458 9.875 10.1310208 7.23833333 10.1310208 6.66666667z"/>
  </g>
</svg>
