<svg xmlns="http://www.w3.org/2000/svg" width="24" height="24" viewBox="0 0 24 24">
  <g fill="none" fill-rule="evenodd" stroke="#0E4EAD" stroke-width="1.5" transform="translate(1 1)">
    <path d="M15.5,5.25 C15.5,4.4215 16.1715,3.75 17,3.75 C17.8285,3.75 18.5,4.4215 18.5,5.25 C18.5,6.0785 17.8285,6.75 17,6.75 C16.1715,6.75 15.5,6.0785 15.5,5.25 Z"/>
    <path d="M20.1623696,12.161324 C23.0592228,9.26447079 22.9416848,4.49523166 19.8097554,1.75025883 C17.1523315,-0.578735736 13.1105707,-0.584056388 10.4473424,1.73816644 C7.91422826,3.94768818 7.34443478,7.47721535 8.7336087,10.2831338 L6.85541848,12.161324 L6.53279348,14.4192154 L4.27441848,14.7418404 L3.95179348,17.0002154 L1.69390217,17.3228404 L0,19.0162588 L1.5913587,20.6076175 C2.49441848,21.5106773 3.95808152,21.5106773 4.8611413,20.6076175 L11.959375,13.5089001 C14.624538,14.8289056 17.9426902,14.3810034 20.1623696,12.161324 Z"/>
  </g>
</svg>
