<svg width="24" height="24" viewBox="0 0 24 24" version="1.1" xmlns="http://www.w3.org/2000/svg">
  <g stroke="none" stroke-width="1" fill="none" fill-rule="evenodd">
    <path d="M5.466,17.469 L11.46375,11.47125 L12.52425,12.53175 L6.5265,18.5295 L5.466,17.469 Z M12.75,22.5000022 C12.65501,22.5002311 12.5608407,22.4824153 12.4725,22.4475 C12.2223791,22.3477907 12.0449033,22.1216522 12.0075,21.855 L11.2575,16.605 L12.7575,16.395 L13.32,20.3475 L15.75,18.39 L15.75,12.75 C15.7488474,12.5506478 15.8271101,12.3590391 15.9675,12.2175 L19.02,9.165 C20.2904487,7.90316947 21.0034025,6.18559896 21,4.395 L21,3 L19.605,3 C17.814401,2.99659749 16.0968305,3.70955129 14.835,4.98 L11.7825,8.0325 C11.6409609,8.17288989 11.4493522,8.25115257 11.25,8.25 L5.61,8.25 L3.6525,10.695 L7.605,11.2575 L7.395,12.7575 L2.145,12.0075 C1.87834778,11.9700967 1.65220933,11.7926209 1.5525,11.5425 C1.45152736,11.2905607 1.49455252,11.0037263 1.665,10.7925 L4.665,7.0425 C4.80497692,6.8606305 5.02051824,6.75285984 5.25,6.75 L10.9425,6.75 L13.77,3.915 C15.3139657,2.36235683 17.4153707,1.49262368 19.605,1.49995346 L21,1.49995346 C21.8284271,1.49995346 22.5000465,2.17157288 22.5000465,3 L22.5000465,4.395 C22.5073763,6.58462933 21.6376432,8.68603427 20.085,10.23 L17.25,13.0575 L17.25,18.75 C17.2489479,18.978204 17.1440531,19.1935145 16.965,19.335 L13.215,22.335 C13.0830455,22.4408704 12.9191732,22.4990187 12.75,22.5000022 Z" fill="currentColor"></path>
  </g>
</svg>