<?xml version="1.0" encoding="UTF-8"?>
<svg width="24px" height="24px" viewBox="0 0 24 24" version="1.1" xmlns="http://www.w3.org/2000/svg" xmlns:xlink="http://www.w3.org/1999/xlink">
    <!-- Generator: Sketch 64 (93537) - https://sketch.com -->
    <title>Icon / Server</title>
    <desc>Created with Sketch.</desc>
    <g id="Icon-/-Server" stroke="none" stroke-width="1" fill="none" fill-rule="evenodd">
        <path d="M21,0 L21,18.8722296 C21,20.6552671 20.8143488,21.3018396 20.4657346,21.9536914 C20.1171204,22.6055433 19.6055433,23.1171204 18.9536914,23.4657346 C18.3018396,23.8143488 17.6552671,24 15.8722296,24 L8.1277704,24 C6.34473292,24 5.69816044,23.8143488 5.04630859,23.4657346 C4.39445674,23.1171204 3.88287959,22.6055433 3.53426541,21.9536914 C3.20399934,21.3361475 3.01999365,20.723342 3.0015395,19.144484 L3.001,16.5 L3,16.5 L3,0 L21,0 Z M19.5,16.5 L4.5,16.5 L4.5009726,19.1089114 C4.51077738,20.246912 4.59588958,20.717831 4.80945645,21.1536285 L4.8569852,21.2462931 C5.06579969,21.6367423 5.36325774,21.9342003 5.75370688,22.1430148 C6.18577614,22.374088 6.60811465,22.4740999 7.64429363,22.4954923 L8.1277704,22.5 L15.8722296,22.5 L16.3557064,22.4954923 C17.3918853,22.4740999 17.8142239,22.374088 18.2462931,22.1430148 C18.6367423,21.9342003 18.9342003,21.6367423 19.1430148,21.2462931 C19.374088,20.8142239 19.4740999,20.3918853 19.4954923,19.3557064 L19.5,18.8722296 L19.5,16.5 Z M17,18 C17.5522847,18 18,18.4477153 18,19 C18,19.5522847 17.5522847,20 17,20 C16.4477153,20 16,19.5522847 16,19 C16,18.4477153 16.4477153,18 17,18 Z M19.5,9 L4.5,9 L4.5,15 L19.5,15 L19.5,9 Z M17,10.5 C17.5522847,10.5 18,10.9477153 18,11.5 C18,12.0522847 17.5522847,12.5 17,12.5 C16.4477153,12.5 16,12.0522847 16,11.5 C16,10.9477153 16.4477153,10.5 17,10.5 Z M19.5,1.5 L4.5,1.5 L4.5,7.5 L19.5,7.5 L19.5,1.5 Z M17,3 C17.5522847,3 18,3.44771525 18,4 C18,4.55228475 17.5522847,5 17,5 C16.4477153,5 16,4.55228475 16,4 C16,3.44771525 16.4477153,3 17,3 Z" id="Rectangle-Copy" fill="currentColor" fill-rule="nonzero"></path>
    </g>
</svg>