<svg xmlns="http://www.w3.org/2000/svg" width="24" height="24" viewBox="0 0 24 24">
  <g fill="none" fill-rule="evenodd">
    <path fill="#0e4ead" fill-rule="nonzero" d="M22.5,12 C22.5,6.20110641 17.7990348,1.5 12,1.5 C6.20096523,1.5 1.5,6.20110641 1.5,12 C1.5,17.7988936 6.20096523,22.5 12,22.5 C17.7990348,22.5 22.5,17.7988936 22.5,12 Z M24,12 C24,18.6271304 18.6276522,24 12,24 C5.37234783,24 0,18.6271304 0,12 C0,5.37286957 5.37234783,0 12,0 C18.6276522,0 24,5.37286957 24,12 Z"/>
    <polygon fill="#0e4ead" fill-rule="nonzero" points="11.5 12 11.5 3.75 13 3.75 13 13.5 6.25 13.5 6.25 12"/>
  </g>
</svg>
